<svg xmlns="http://www.w3.org/2000/svg" width="100.5999755859375" height="92.80000305175781" viewBox="1338.050048828125 136.5 100.5999755859375 92.80000305175781"><defs>
    <linearGradient gradientUnits="userSpaceOnUse" x1="-819.2" x2="819.2" spreadMethod="pad" gradientTransform="matrix(-0.006866455078125 -0.006866455078125 0.0206298828125 -0.0206298828125 476.1 157.9)" id="gradient0">
      <stop offset="0" stop-color="#FFCC00"></stop>
      <stop offset="1" stop-color="#ECBC00"></stop>
    </linearGradient>
    <linearGradient gradientUnits="userSpaceOnUse" x1="-819.2" x2="819.2" spreadMethod="pad" gradientTransform="matrix(0 0.00567626953125 -0.01031494140625 0 267 595.55)" id="gradient1">
      <stop offset="0" stop-color="#FFCC00"></stop>
      <stop offset="1" stop-color="#FF9900"></stop>
    </linearGradient>
    <linearGradient gradientUnits="userSpaceOnUse" x1="-819.2" x2="819.2" spreadMethod="pad" gradientTransform="matrix(-0.0078277587890625 -0.0078277587890625 0.0093231201171875 -0.0093231201171875 179 64.8)" id="gradient2">
      <stop offset="0" stop-color="#B9C6C6"></stop>
      <stop offset="1" stop-color="#D4E2E2"></stop>
    </linearGradient>
    <linearGradient gradientUnits="userSpaceOnUse" x1="-819.2" x2="819.2" spreadMethod="pad" gradientTransform="matrix(0.0075531005859375 -0.0075531005859375 0.0093231201171875 0.0093231201171875 155.2 64)" id="gradient3">
      <stop offset="0" stop-color="#B9C6C6"></stop>
      <stop offset="1" stop-color="#D4E2E2"></stop>
    </linearGradient>
    <linearGradient gradientUnits="userSpaceOnUse" x1="-819.2" x2="819.2" spreadMethod="pad" gradientTransform="matrix(0 0.00567626953125 -0.01031494140625 0 227.35 648.8)" id="gradient4">
      <stop offset="0" stop-color="#FFCC00"></stop>
      <stop offset="1" stop-color="#FF9900"></stop>
    </linearGradient>
  </defs><path stroke="none" fill="#464646" d="M1347.05 172.2 Q1347.15 171.9 1347.4 171.65 L1349.8 168.85 Q1350.25 168.35 1350.9 168.2 L1352.2 168.35 1353.7 169.1 1375.15 143.85 Q1375.6 143.3 1376.35 143.2 L1392.3 140.85 1393.3 140.95 1394.1 141.45 1396.85 144.5 1402.15 138.2 Q1402.55 137.65 1403.25 137.5 L1404.5 137.65 1420.5 145.1 1421.15 145.55 1436.9 162.65 1435.6 164.2 1419.65 146.9 Q1411.65 143.2 1403.65 139.45 L1396.9 147.5 1392.6 142.8 1376.65 145.15 1354.25 171.55 1354.6 171.75 1351.3 170.15 1348.9 172.95 1347.05 172.2 M1339.05 194.55 L1339.05 192.7 Q1339.05 192.1 1339.35 191.65 L1346.9 179.75 1346.9 179.45 1348.9 180.35 1341.05 192.7 1341.05 195.5 1339.05 194.55"></path><path stroke="none" fill="#8A3F23" d="M1436.9 162.65 L1437.15 162.9 Q1437.65 163.45 1437.65 164.25 L1437.65 172.25 1435.65 174.55 1435.65 164.25 1435.6 164.2 1436.9 162.65 M1389.15 210.7 L1380.8 220.6 1380.8 217.5 1389.15 207.65 1389.15 210.7 M1346.9 179.45 L1346.9 172.95 Q1346.9 172.55 1347.05 172.2 L1348.9 172.95 1348.9 180.35 1346.9 179.45"></path><path stroke="none" fill="#747474" d="M1354.6 171.75 L1354.25 171.55 1376.65 145.15 1392.6 142.8 1367.5 172.4 1359.25 173.9 1354.6 171.75 M1354.9 186.2 L1350.5 184.15 1346.9 189.8 1351.2 191.8 1354.9 186.2 M1372.85 184.15 L1375.2 181.3 1383.2 185.05 1380.8 187.9 1372.85 184.15 M1380.8 195.25 L1372.95 207.6 1341.05 192.7 1348.9 180.35 1380.8 195.25 M1390.05 160.45 L1387.75 163.2 1384.85 160.15 1387.15 157.35 1390.05 160.45 M1394.9 159.6 L1397.8 162.7 1395.5 165.45 1392.6 162.4 1394.9 159.6 M1382.7 173.9 L1378.2 169.2 1381.8 164.9 1386.25 169.7 1382.7 173.9 M1413.6 176.7 L1415.9 173.9 1418.8 177 1416.5 179.75 1413.6 176.7 M1415.2 163.2 L1419.65 168 1416.1 172.2 1411.6 167.5 1415.2 163.2"></path><path stroke="none" fill="#666666" d="M1348.9 172.95 L1351.3 170.15 1354.6 171.75 1359.25 173.9 1367.5 172.4 1364.8 175.55 1356.85 176.7 1348.9 172.95 M1354.9 186.2 L1351.2 191.8 1346.9 189.8 1350.5 184.15 1354.9 186.2 M1371 209.55 L1370.65 209.35 1348.9 199.2 1347.4 198.5 1347.35 198.5 1344.2 197 1344.2 196.95 1343 196.45 1341.05 195.5 1341.05 192.7 1372.95 207.6 1380.8 195.25 1380.8 198.05 1374.15 209 1372.95 210.4 1371 209.55"></path><path stroke="none" fill="#D26F49" d="M1371 209.55 L1371 210.05 1368.05 208.7 1367.8 208.55 1367.05 208.25 1348.9 199.75 1348.9 199.2 1370.65 209.35 1371 209.55 M1348.9 180.35 L1348.9 172.95 1356.85 176.7 1364.8 175.55 1372.85 184.15 1380.8 187.9 1380.8 195.25 1348.9 180.35 M1364.8 180.9 L1363.85 178.05 1362.85 179.95 1360.6 179.15 1362.25 181.7 1361.85 184.05 1363.85 183.8 1365.8 185.95 1365.4 183.2 1367.05 182.25 1364.8 180.9 M1374.15 211.55 L1374.15 209 1380.8 198.05 1380.8 214.65 1374.15 211.55 M1405.2 200.2 L1405.2 209.75 1389.15 202.85 1389.15 182.9 1405.2 200.2 M1398.55 200.05 L1392.6 197.55 1392.6 200.8 1398.55 203.35 1398.55 200.05"></path><path stroke="none" fill="#BB5F3C" d="M1398.55 200.05 L1398.55 203.35 1392.6 200.8 1392.6 197.55 1398.55 200.05 M1364.8 180.9 L1367.05 182.25 1365.4 183.2 1365.8 185.95 1363.85 183.8 1361.85 184.05 1362.25 181.7 1360.6 179.15 1362.85 179.95 1363.85 178.05 1364.8 180.9 M1380.8 187.9 L1383.2 185.05 1383.2 189.95 1389.15 182.9 1389.15 202.85 1389.15 207.6 1389.15 207.65 1380.8 217.5 1380.8 214.65 1380.8 198.05 1380.8 195.25 1380.8 187.9 M1435.65 164.25 L1435.65 174.55 1435.65 174.6 1405.2 209.75 1405.2 200.2 1435.65 164.25 M1427.4 177.35 L1427.4 181.6 1431.15 177.25 1431.15 173.55 1427.4 177.35 M1414.6 193 L1414.6 195.95 1417.2 192.9 1417.2 190.35 1414.6 193"></path><path stroke="none" fill="#8A8A8A" d="M1396.9 147.5 L1403.65 139.45 Q1411.65 143.2 1419.65 146.9 L1408.6 159.9 1408.5 160 1396.9 147.5 M1364.8 175.55 L1367.5 172.4 1375.2 181.3 1372.85 184.15 1364.8 175.55"></path><path stroke="none" fill="#808080" d="M1392.6 142.8 L1396.9 147.5 1408.5 160 1408.6 159.9 1419.65 146.9 1435.6 164.2 1435.65 164.25 1405.2 200.2 1389.15 182.9 1383.2 189.95 1383.2 185.05 1375.2 181.3 1367.5 172.4 1392.6 142.8 M1415.2 163.2 L1411.6 167.5 1416.1 172.2 1419.65 168 1415.2 163.2 M1413.6 176.7 L1416.5 179.75 1418.8 177 1415.9 173.9 1413.6 176.7 M1382.7 173.9 L1386.25 169.7 1381.8 164.9 1378.2 169.2 1382.7 173.9 M1394.9 159.6 L1392.6 162.4 1395.5 165.45 1397.8 162.7 1394.9 159.6 M1390.05 160.45 L1387.15 157.35 1384.85 160.15 1387.75 163.2 1390.05 160.45"></path><path stroke="none" fill="#D8A36D" d="M1368.05 208.7 L1371 210.05 1371 223 1343 209.9 1344.2 208.5 1344.2 205.3 1347.9 200.95 1347.95 200.85 1348.9 199.75 1367.05 208.25 1368.05 208.7 M1354.15 204 L1351.95 202.95 1348.45 207.1 1350.75 208.15 1354.15 204 M1355.7 207.4 L1353.5 206.35 1350 210.5 1352.3 211.55 1355.7 207.4"></path><path stroke="none" fill="#BE9060" d="M1355.7 207.4 L1352.3 211.55 1350 210.5 1353.5 206.35 1355.7 207.4 M1371 210.05 L1371 209.55 1372.95 210.4 1372.95 226.3 1372 226.3 1341.05 211.85 1341.05 195.55 1343 196.45 1343 209.9 1371 223 1371 210.05 M1354.15 204 L1350.75 208.15 1348.45 207.1 1351.95 202.95 1354.15 204"></path><path stroke="none" fill="#B0E9FC" d="M1367.05 208.25 L1367.8 208.55 1368.05 208.7 1367.05 208.25"></path><path stroke="none" fill="#A07A50" d="M1372.95 210.4 L1374.15 209 1374.15 211.55 1374.15 222.5 1380.8 214.65 1380.8 217.5 1373.35 226.3 1372.95 226.3 1372.95 210.4 M1343 196.45 L1344.2 196.95 1344.2 197 1344.2 205.3 1344.2 208.5 1343 209.9 1343 196.45"></path><path stroke="none" fill="#5B4C3C" d="M1380.8 220.6 L1374.9 227.6 1374.2 228.15 1373.35 228.3 1372 228.3 1371.15 228.1 1340.2 213.65 1339.4 212.95 Q1339.05 212.45 1339.05 211.85 L1339.05 194.55 1341.05 195.5 1341.05 195.55 1341.05 211.85 1372 226.3 1372.95 226.3 1373.35 226.3 1380.8 217.5 1380.8 220.6 M1348.9 199.2 L1348.9 199.75 1347.95 200.85 1347.9 200.95 1344.2 205.3 1344.2 197 1347.35 198.5 1347.4 198.5 1348.9 199.2"></path><path stroke="none" fill="#515151" d="M1341.05 195.5 L1343 196.45 1341.05 195.55 1341.05 195.5"></path><path stroke="none" fill="#D2A66B" d="M1380.8 214.65 L1374.15 222.5 1374.15 211.55 1380.8 214.65"></path><path stroke="none" fill="#727979" d="M1437.65 172.25 L1437.65 179.15 Q1437.65 179.9 1437.2 180.45 L1406.75 216.4 Q1406.3 216.9 1405.65 217.05 L1404.35 216.9 1389.7 210.05 1389.15 210.7 1389.15 207.65 1389.15 207.6 1392.15 209.05 1397.15 211.35 1405.2 215.1 1435.65 179.15 1435.65 174.6 1435.65 174.55 1437.65 172.25"></path><path stroke="none" fill="#A6B1B1" d="M1435.65 174.6 L1435.65 179.15 1405.2 215.1 1405.2 209.75 1435.65 174.6"></path><path stroke="none" fill="#AA5636" d="M1427.4 177.35 L1431.15 173.55 1431.15 177.25 1427.4 181.6 1427.4 177.35 M1414.6 193 L1417.2 190.35 1417.2 192.9 1414.6 195.95 1414.6 193"></path><path stroke="none" fill="#B9C6C6" d="M1405.2 215.1 L1397.15 211.35 1392.15 209.05 1389.15 207.6 1389.15 202.85 1405.2 209.75 1405.2 215.1"></path></svg>